HIERARCHY
ROOT Hips
{
 OFFSET 0.000000 0.000000 0.000000
 CHANNELS 6 Xposition Yposition Zposition Yrotation Xrotation Zrotation
 JOINT Chest
 {
  OFFSET 0.000000 9.585900 0.002600
  CHANNELS 3 Yrotation Xrotation Zrotation
  JOINT Chest2
  {
   OFFSET 0.000000 9.601200 -0.005300
   CHANNELS 3 Yrotation Xrotation Zrotation
   JOINT Chest3
   {
    OFFSET 0.000000 9.561800 0.000000
    CHANNELS 3 Yrotation Xrotation Zrotation
    JOINT Chest4
    {
     OFFSET 0.000000 9.552100 0.000000
     CHANNELS 3 Yrotation Xrotation Zrotation
     JOINT Neck
     {
      OFFSET 0.000000 14.453000 0.000000
      CHANNELS 3 Yrotation Xrotation Zrotation
      JOINT Head
      {
       OFFSET 0.000000 8.936500 -0.011300
       CHANNELS 3 Yrotation Xrotation Zrotation
       End Site
       {
        OFFSET 0.000000 17.073600 -0.006000
       }
      }
     }
     JOINT RightCollar
     {
      OFFSET -2.921100 9.558500 0.000000
      CHANNELS 3 Yrotation Xrotation Zrotation
      JOINT RightShoulder
      {
       OFFSET -13.519700 0.000000 0.000000
       CHANNELS 3 Yrotation Xrotation Zrotation
       JOINT RightElbow
       {
        OFFSET 0.000000 -29.696600 0.000000
        CHANNELS 3 Yrotation Xrotation Zrotation
        JOINT RightWrist
        {
         OFFSET 0.000000 -24.004700 0.000000
         CHANNELS 3 Yrotation Xrotation Zrotation
         End Site
         {
          OFFSET 0.000000 -17.728500 0.000000
         }
        }
       }
      }
     }
     JOINT LeftCollar
     {
      OFFSET 2.921100 9.558500 0.000000
      CHANNELS 3 Yrotation Xrotation Zrotation
      JOINT LeftShoulder
      {
       OFFSET 13.519700 0.000000 0.000000
       CHANNELS 3 Yrotation Xrotation Zrotation
       JOINT LeftElbow
       {
        OFFSET 0.000000 -29.696600 0.000000
        CHANNELS 3 Yrotation Xrotation Zrotation
        JOINT LeftWrist
        {
         OFFSET 0.000000 -24.004700 0.000000
         CHANNELS 3 Yrotation Xrotation Zrotation
         End Site
         {
          OFFSET 0.000000 -17.728500 0.000000
         }
        }
       }
      }
     }
    }
   }
  }
 }
 JOINT RightHip
 {
  OFFSET -7.771700 -0.012900 -0.001300
  CHANNELS 3 Yrotation Xrotation Zrotation
  JOINT RightKnee
  {
   OFFSET 0.000000 -40.869800 0.001200
   CHANNELS 3 Yrotation Xrotation Zrotation
   JOINT RightAnkle
   {
    OFFSET 0.000000 -39.717900 0.002100
    CHANNELS 3 Yrotation Xrotation Zrotation
    JOINT RightToe
    {
     OFFSET 0.000000 -4.965400 11.033500
     CHANNELS 3 Yrotation Xrotation Zrotation
     End Site
     {
      OFFSET 0.000000 -1.423100 5.872300
     }
    }
   }
  }
 }
 JOINT LeftHip
 {
  OFFSET 7.771700 -0.012900 -0.001300
  CHANNELS 3 Yrotation Xrotation Zrotation
  JOINT LeftKnee
  {
   OFFSET 0.000000 -40.869800 0.001200
   CHANNELS 3 Yrotation Xrotation Zrotation
   JOINT LeftAnkle
   {
    OFFSET 0.000000 -39.717900 0.002100
    CHANNELS 3 Yrotation Xrotation Zrotation
    JOINT LeftToe
    {
     OFFSET 0.000000 -4.965400 11.033500
     CHANNELS 3 Yrotation Xrotation Zrotation
     End Site
     {
      OFFSET 0.000000 -1.423100 5.872300
     }
    }
   }
  }
 }
}
MOTION
Frames: 12
Frame Time: 0.008333
-211.433776 57.634560 -69.780082 159.003198 -8.616934 0.316374 4.105443 7.291237 0.924677 0.188340 0.366543 0.009962 0.323841 0.637526 -0.002528 3.542790 6.943602 0.168766 1.529043 18.017150 -0.965460 3.125599 -2.294019 -2.212589 1.075342 8.632410 1.032458 -3.865181 -7.888937 -8.542002 -112.030877 -86.453775 136.222030 -1.306054 7.132580 -30.645979 -4.581273 9.413823 -1.601754 15.704640 -6.970753 3.744640 80.629708 -75.283372 -112.395718 -1.504857 7.710916 13.206439 -12.712095 -63.269474 7.363297 -33.395534 71.889496 -34.678510 -4.669265 -7.162676 -0.659677 -0.307932 0.887560 -0.147104 1.829955 -66.007636 15.535630 40.718127 66.424806 33.984008 -18.116693 -10.070057 4.557364 -0.242089 -1.047245 -0.129999
-211.435463 57.636519 -69.773667 159.065206 -8.627101 0.312597 4.042586 7.301096 0.915823 0.186277 0.365377 -0.002643 0.324876 0.637404 -0.003905 3.552709 6.940234 0.152944 1.585311 18.037138 -0.946760 3.216810 -2.272573 -2.199792 1.092290 8.632283 1.058691 -3.469791 -8.067417 -8.607606 -107.873808 -86.656753 131.791001 -1.301988 7.375496 -30.741556 -4.522697 9.378394 -1.656525 15.635235 -7.105876 3.854404 80.911994 -75.298103 -112.686220 -1.545552 7.636819 13.056545 -12.773894 -63.257382 7.362180 -33.378735 71.881229 -34.668136 -4.698247 -7.102471 -0.670038 -0.268824 0.828011 -0.130146 1.752885 -65.998073 15.526367 40.717923 66.402590 34.000928 -18.152205 -10.106960 4.536438 -0.174583 -0.988104 -0.117275
-211.436294 57.638356 -69.760401 159.067775 -8.603589 0.305874 4.039620 7.282241 0.905134 0.187012 0.365466 -0.003472 0.326473 0.650419 -0.018194 3.564896 6.925331 0.150895 1.636211 18.048880 -0.924962 3.299240 -2.265142 -2.183095 1.107381 8.622774 1.085757 -3.096619 -8.234828 -8.696992 -104.174829 -86.796832 127.840545 -1.311605 7.586216 -30.860017 -4.477593 9.335966 -1.695965 15.597096 -7.236667 3.934241 81.233011 -75.296014 -113.043432 -1.583736 7.545034 12.875641 -12.814343 -63.273503 7.406251 -33.368492 71.855649 -34.661965 -4.684018 -7.088770 -0.673322 -0.272529 0.829909 -0.131912 1.714170 -66.020097 15.541377 40.709598 66.371796 34.010888 -18.165960 -10.083238 4.518725 -0.136782 -0.988271 -0.119389
-211.437452 57.640893 -69.746808 159.065183 -8.578991 0.308342 4.039359 7.278575 0.882851 0.190542 0.369962 -0.005891 0.329565 0.639777 -0.007784 3.589574 6.945435 0.112821 1.675779 18.029184 -0.878663 3.370277 -2.270025 -2.164915 1.207598 8.532983 1.144823 -2.866166 -8.337878 -8.808394 -101.423858 -86.868065 124.883819 -1.379670 7.684742 -30.984977 -4.441960 9.258185 -1.709639 15.547904 -7.284037 4.013399 81.894362 -75.277638 -113.745142 -1.617805 7.445778 12.673060 -12.833971 -63.291952 7.434666 -33.351431 71.831390 -34.653206 -4.671284 -7.080110 -0.670806 -0.281914 0.836641 -0.136541 1.701551 -66.041131 15.532222 40.699192 66.338537 34.019339 -18.176805 -10.060941 4.503651 -0.165766 -0.986913 -0.126821
-211.436616 57.644424 -69.735232 159.063110 -8.569111 0.310421 4.041128 7.272270 0.878208 0.196621 0.379882 -0.009431 0.326596 0.634217 -0.006022 3.602236 6.954046 0.105308 1.690242 18.020211 -0.866786 3.429775 -2.275960 -2.155089 1.287945 8.464060 1.169224 -2.673608 -8.425091 -8.934156 -99.856834 -86.883981 123.180596 -1.450374 7.808969 -31.119469 -4.396424 9.185460 -1.756114 15.541173 -7.424471 4.059744 82.125873 -75.248261 -114.050850 -1.648468 7.351074 12.453907 -12.857968 -63.297467 7.467615 -33.341534 71.809351 -34.656692 -4.665490 -7.062583 -0.665616 -0.289535 0.828876 -0.139322 1.691417 -66.048008 15.525037 40.691988 66.314140 34.025862 -18.173597 -10.047904 4.499537 -0.173750 -0.983714 -0.134569
-211.431995 57.648375 -69.722430 159.056363 -8.556620 0.294947 4.056478 7.271111 0.890749 0.196248 0.376621 -0.008901 0.325315 0.632667 -0.005233 3.603471 6.951907 0.104615 1.711915 18.021438 -0.862566 3.431743 -2.283650 -2.147305 1.399443 8.385837 1.188289 -2.575548 -8.478010 -9.051697 -99.507748 -86.868282 122.764564 -1.347998 7.875193 -31.164029 -4.340008 9.108790 -1.804971 15.552549 -7.548499 4.091295 82.327319 -75.212381 -114.333807 -1.680673 7.272994 12.229388 -12.912029 -63.299256 7.543762 -33.323701 71.783509 -34.648485 -4.668638 -7.037164 -0.669906 -0.288524 0.817719 -0.138618 1.655850 -66.059714 15.562354 40.649563 66.299384 34.005630 -18.181169 -10.040506 4.482874 -0.135882 -0.975584 -0.124897
-211.429800 57.652203 -69.708296 159.049179 -8.524454 0.294742 4.071286 7.250022 0.886122 0.190895 0.368378 -0.005512 0.350645 0.650415 -0.005680 3.597808 6.946696 0.100362 1.742268 18.008568 -0.849326 3.553143 -2.346145 -2.135293 1.511561 8.280002 1.213260 -2.553322 -8.504024 -9.143584 -100.243024 -86.843186 123.483155 -1.296019 7.843391 -31.163030 -4.297967 9.007312 -1.835235 15.568353 -7.618259 4.114390 82.639022 -75.173576 -114.718087 -1.710427 7.214199 12.010627 -12.956094 -63.320036 7.611454 -33.291429 71.747315 -34.641638 -4.667794 -7.011988 -0.664596 -0.289342 0.814974 -0.139477 1.632146 -66.087339 15.564921 40.628512 66.272668 34.007714 -18.161399 -10.028419 4.453797 -0.139179 -0.976160 -0.115453
-211.429897 57.656646 -69.699515 159.069724 -8.507738 0.318291 4.063497 7.243938 0.862282 0.191584 0.368499 -0.005483 0.353395 0.645583 -0.002074 3.606370 6.951271 0.098438 1.805268 17.965389 -0.833342 3.580197 -2.391134 -2.130723 1.623466 8.166139 1.229602 -2.628996 -8.456426 -9.181184 -102.884184 -86.817862 126.178393 -1.263463 7.801618 -31.125032 -4.262079 8.899414 -1.855326 15.601599 -7.670665 4.115224 82.914114 -75.145215 -115.066854 -1.733451 7.165514 11.811087 -12.943346 -63.338537 7.579402 -33.283562 71.736475 -34.641079 -4.668106 -7.006851 -0.662726 -0.290631 0.814388 -0.140083 1.595435 -66.089504 15.529369 40.657424 66.235144 34.035854 -18.124451 -10.022972 4.450397 -0.158925 -0.981577 -0.122168
-211.420496 57.661359 -69.690919 159.087014 -8.499783 0.292490 4.084252 7.241917 0.902579 0.191835 0.367560 -0.006428 0.339781 0.638465 -0.004686 3.637212 6.927005 0.112963 1.810294 17.937922 -0.839171 3.607302 -2.436270 -2.139419 1.709059 8.072276 1.225410 -2.636670 -8.476613 -9.203265 -104.456353 -86.810678 127.735554 -1.222858 7.753123 -31.049130 -4.250964 8.811221 -1.878042 15.640818 -7.706409 4.098199 83.172302 -75.132066 -115.391995 -1.755912 7.124630 11.645554 -13.042962 -63.328325 7.685168 -33.287707 71.713554 -34.665727 -4.676570 -6.997807 -0.662910 -0.292263 0.808245 -0.136760 1.513527 -66.094888 15.590317 40.617794 66.220737 34.012688 -18.110699 -10.022547 4.441794 -0.173962 -0.983483 -0.119072
-211.418533 57.665838 -69.685789 159.100374 -8.480409 0.318015 4.096748 7.227674 0.891008 0.168501 0.364857 -0.018161 0.356258 0.633567 0.006029 3.639682 6.903718 0.119756 1.804664 17.938602 -0.850239 3.669011 -2.536761 -2.165077 1.815750 7.974289 1.215933 -2.632294 -8.497242 -9.180269 -106.378366 -86.833157 129.624992 -1.183950 7.699170 -30.957316 -4.210971 8.713624 -1.888440 15.675286 -7.726075 4.072320 83.433927 -75.136613 -115.703309 -1.778114 7.094833 11.522114 -13.016121 -63.351480 7.643587 -33.296202 71.706365 -34.675016 -4.673024 -6.990868 -0.661868 -0.301977 0.801600 -0.137668 1.505188 -66.103095 15.557685 40.638306 66.200548 34.025354 -18.128171 -10.019613 4.461523 -0.185757 -0.994562 -0.138009
-211.413598 57.669913 -69.680086 159.130385 -8.447804 0.323824 4.083630 7.196072 0.890357 0.172876 0.363653 -0.014271 0.344971 0.631274 -0.000413 3.656235 6.871707 0.135500 1.834480 17.880692 -0.858592 3.694229 -2.596391 -2.189820 1.910110 7.881714 1.195337 -2.629167 -8.498770 -9.133713 -108.963969 -86.860746 132.173915 -1.155503 7.635464 -30.867208 -4.174333 8.611754 -1.895976 15.699909 -7.731310 4.042859 83.703596 -75.163089 -115.998815 -1.794556 7.069993 11.438857 -13.059782 -63.379551 7.665247 -33.330465 71.692965 -34.709010 -4.690689 -6.992144 -0.667764 -0.277074 0.799065 -0.135912 1.436596 -66.126763 15.573077 40.664342 66.180429 34.040494 -18.115669 -10.010396 4.460209 -0.199545 -1.001888 -0.147561
-211.407996 57.673614 -69.675620 159.166981 -8.406359 0.326436 4.052416 7.155089 0.883340 0.216225 0.359750 0.008039 0.306655 0.631648 -0.018623 3.676676 6.836479 0.153680 1.861524 17.814448 -0.870696 3.715563 -2.662616 -2.218532 1.989501 7.788303 1.163705 -2.603592 -8.512336 -9.076555 -111.505279 -86.892952 134.656552 -1.136465 7.565321 -30.786089 -4.142717 8.503291 -1.900007 15.710161 -7.722448 4.008880 83.997253 -75.217778 -116.293520 -1.805198 7.043244 11.391916 -13.116451 -63.415660 7.689296 -33.352920 71.686833 -34.732173 -4.688006 -6.996140 -0.673168 -0.271797 0.796512 -0.135477 1.310272 -66.152466 15.627589 40.720126 66.145018 34.078579 -18.107979 -9.998321 4.439936 -0.196769 -1.007316 -0.149799
